<svg version="1.1" id="Layer_1" xmlns="http://www.w3.org/2000/svg" xmlns:xlink="http://www.w3.org/1999/xlink" x="0px" y="0px"
	 width="100%" viewBox="0 0 300 300" enable-background="new 0 0 300 300" xml:space="preserve">
<path fill="#010101" opacity="1.000000" stroke="none" 
	d="
M208.000000,301.000000 
	C138.666672,301.000000 69.833359,301.000000 1.000028,301.000000 
	C1.000018,201.000031 1.000018,101.000061 1.000009,1.000068 
	C100.999947,1.000045 200.999893,1.000045 300.999878,1.000023 
	C300.999939,100.999939 300.999939,200.999878 300.999969,300.999908 
	C270.166656,301.000000 239.333328,301.000000 208.000000,301.000000 
M54.733353,242.758957 
	C63.654144,250.208069 72.032135,258.476044 81.660141,264.858276 
	C90.005531,270.390259 99.644791,274.075989 108.952789,278.008148 
	C114.035255,280.155212 118.560005,277.659485 118.756493,273.006104 
	C119.104858,264.755768 118.854218,256.480164 118.854218,249.045517 
	C111.556389,249.045517 104.898621,249.493896 98.324150,248.944870 
	C87.299622,248.024216 78.904007,243.182037 74.436440,232.233749 
	C71.222244,224.356995 66.750244,217.117935 59.031422,212.493912 
	C57.248207,211.425659 56.034321,209.407043 54.045918,207.276596 
	C60.999210,203.915451 66.674843,204.977768 71.390289,208.755219 
	C75.461937,212.016922 79.057182,216.114838 82.082588,220.394775 
	C90.411804,232.177841 103.604584,236.274216 116.814972,230.567001 
	C117.901100,230.097748 119.129509,229.149567 119.564697,228.117355 
	C121.821541,222.764511 123.842110,217.312027 125.460556,213.142395 
	C115.641197,209.784042 104.685242,207.212708 94.796104,202.433807 
	C65.370583,188.213943 60.109211,136.902557 78.983406,114.993233 
	C80.137978,113.653000 80.901825,111.065323 80.469582,109.420044 
	C78.064026,100.263512 78.770027,91.336349 81.040436,82.279961 
	C82.194595,77.676125 84.752998,75.899010 88.884766,77.493484 
	C97.669899,80.883720 106.386337,84.503456 114.897179,88.523941 
	C117.722618,89.858673 119.977264,90.739334 123.188927,89.954086 
	C142.119247,85.325645 161.126907,85.355324 180.065811,89.936401 
	C183.212585,90.697571 185.606781,90.292793 188.324921,88.499084 
	C196.421021,83.156471 205.014297,78.843758 214.763794,77.278008 
	C218.555603,76.669044 220.912918,77.430862 222.064072,81.682625 
	C224.600922,91.052452 225.234543,100.326622 222.690445,109.777069 
	C222.363907,110.990059 222.473740,112.869919 223.210083,113.737701 
	C235.351547,128.046616 236.627411,144.731064 234.163361,162.306931 
	C230.677322,187.172470 216.451538,203.033356 192.037933,209.014084 
	C186.847153,210.285675 181.563629,211.178665 175.915405,212.329086 
	C182.466705,219.480865 184.256973,227.763504 184.193817,236.672150 
	C184.118210,247.335587 184.114594,257.999512 184.076309,268.663208 
	C184.041489,278.362366 187.304626,280.628693 196.468552,277.264069 
	C259.316559,254.189056 294.973175,187.053436 278.604553,122.615372 
	C261.921051,56.937618 198.677612,14.300412 132.110138,24.947098 
	C81.347404,33.066002 45.679836,61.747795 28.276012,110.021034 
	C10.787519,158.529114 20.603802,203.073685 54.733353,242.758957 
z"/>
<path fill="#FDFDFD" opacity="1.000000" stroke="none" 
	d="
M54.490685,242.501068 
	C20.603802,203.073685 10.787519,158.529114 28.276012,110.021034 
	C45.679836,61.747795 81.347404,33.066002 132.110138,24.947098 
	C198.677612,14.300412 261.921051,56.937618 278.604553,122.615372 
	C294.973175,187.053436 259.316559,254.189056 196.468552,277.264069 
	C187.304626,280.628693 184.041489,278.362366 184.076309,268.663208 
	C184.114594,257.999512 184.118210,247.335587 184.193817,236.672150 
	C184.256973,227.763504 182.466705,219.480865 175.915405,212.329086 
	C181.563629,211.178665 186.847153,210.285675 192.037933,209.014084 
	C216.451538,203.033356 230.677322,187.172470 234.163361,162.306931 
	C236.627411,144.731064 235.351547,128.046616 223.210083,113.737701 
	C222.473740,112.869919 222.363907,110.990059 222.690445,109.777069 
	C225.234543,100.326622 224.600922,91.052452 222.064072,81.682625 
	C220.912918,77.430862 218.555603,76.669044 214.763794,77.278008 
	C205.014297,78.843758 196.421021,83.156471 188.324921,88.499084 
	C185.606781,90.292793 183.212585,90.697571 180.065811,89.936401 
	C161.126907,85.355324 142.119247,85.325645 123.188927,89.954086 
	C119.977264,90.739334 117.722618,89.858673 114.897179,88.523941 
	C106.386337,84.503456 97.669899,80.883720 88.884766,77.493484 
	C84.752998,75.899010 82.194595,77.676125 81.040436,82.279961 
	C78.770027,91.336349 78.064026,100.263512 80.469582,109.420044 
	C80.901825,111.065323 80.137978,113.653000 78.983406,114.993233 
	C60.109211,136.902557 65.370583,188.213943 94.796104,202.433807 
	C104.685242,207.212708 115.641197,209.784042 125.460556,213.142395 
	C123.842110,217.312027 121.821541,222.764511 119.564697,228.117355 
	C119.129509,229.149567 117.901100,230.097748 116.814972,230.567001 
	C103.604584,236.274216 90.411804,232.177841 82.082588,220.394775 
	C79.057182,216.114838 75.461937,212.016922 71.390289,208.755219 
	C66.674843,204.977768 60.999210,203.915451 54.045918,207.276596 
	C56.034321,209.407043 57.248207,211.425659 59.031422,212.493912 
	C66.750244,217.117935 71.222244,224.356995 74.436440,232.233749 
	C78.904007,243.182037 87.299622,248.024216 98.324150,248.944870 
	C104.898621,249.493896 111.556389,249.045517 118.854218,249.045517 
	C118.854218,256.480164 119.104858,264.755768 118.756493,273.006104 
	C118.560005,277.659485 114.035255,280.155212 108.952789,278.008148 
	C99.644791,274.075989 90.005531,270.390259 81.660141,264.858276 
	C72.032135,258.476044 63.654144,250.208069 54.490685,242.501068 
z"/>
</svg>